<?xml version="1.0" encoding="utf-8"?>
<!-- Generator: Adobe Illustrator 22.0.0, SVG Export Plug-In . SVG Version: 6.00 Build 0)  -->
<svg version="1.1" id="Calque_1" xmlns="http://www.w3.org/2000/svg" xmlns:xlink="http://www.w3.org/1999/xlink" x="0px" y="0px"
	 viewBox="0 0 213.7 41.5" style="enable-background:new 0 0 213.7 41.5;" xml:space="preserve">
<style type="text/css">
	.st0{fill:#FFFFFF;}
</style>
<g>
	<path class="st0" d="M98,15.1c-0.4,0-0.7,0.2-0.9,0.5c0.6-0.1,1.2-0.1,1.7-0.1C98.7,15.3,98.4,15.1,98,15.1 M150.5,23.6
		c0.4,0,1.2-0.5,1.5-1.3c0.2-0.7,0.2-4.3,0-5c-0.2-0.8-1.1-1.3-1.4-1.3c-0.4,0-1.1,0.4-1.1,1.3c0,1.3,0,2.6,0,3.9c0,0,0,0.1,0,0.1v1
		c0,0,0,0,0,0C149.4,23,150.2,23.6,150.5,23.6 M97.6,13.6c0.5-0.3,0.7-0.9,0.4-1.4c-0.3-0.5-1-0.7-1.5-0.4c-0.5,0.3-0.7,0.9-0.4,1.4
		C96.4,13.7,97.1,13.9,97.6,13.6 M95.3,10.7c0.3-0.5,0.1-1.2-0.4-1.4c-0.5-0.3-1.2-0.1-1.5,0.4c-0.3,0.5-0.1,1.2,0.4,1.4
		C94.3,11.3,95,11.2,95.3,10.7 M66.6,27c0,0-0.1,0-0.1,0c0,0-0.1,0-0.1,0c-0.1,0.7-0.3,1.4-0.4,2.2c-0.1,0.4-0.1,0.8-0.2,1.3
		c0.2,0,0.4,0,0.7,0c0.2,0,0.4-0.1,0.7-0.1c-0.1-0.5-0.1-0.9-0.2-1.4C66.8,28.3,66.7,27.6,66.6,27 M64.9,13c-0.6,0.1-1,0.8-0.9,1.4
		c0.2,0.6,0.8,1,1.4,0.9c0.6-0.1,1-0.8,0.9-1.4C66.2,13.2,65.5,12.8,64.9,13 M90.4,38.2c-17.2-5.1-31.9,5.1-49.2,0v0.9
		c17.2,5.1,31.9-5.1,49.2,0c17.1-5.1,34.3,5.1,51.4,0v-0.9C124.6,43.2,107.5,33.1,90.4,38.2 M56,14.7l0.7,2.7l3.1-0.2
		c0.1,0.2,0.3,0.4,0.4,0.6c0.6-0.1,1.2-0.2,1.8-0.3c-0.6-0.5-1-1.1-1.3-1.8l-0.3-1c-0.1-0.8,0.1-1.7,0.4-2.4l0.6-0.9
		c0.5-0.6,1.2-1.1,2.1-1.4l1.1-0.2c0.9-0.1,1.7,0.1,2.5,0.4l0.9,0.6c0.7,0.5,1.2,1.2,1.5,2l0.3,1c0.1,0.8-0.1,1.7-0.4,2.4l-0.2,0.4
		c0.9-0.1,1.7-0.2,2.6-0.4l-0.5-0.4c0.1-0.3,0.1-0.6,0.2-1l2.9-1.1l-0.7-2.7l-3.1,0.2c-0.2-0.3-0.4-0.6-0.6-0.8l1.3-2.8L68.7,6
		l-2,2.3c-0.3-0.1-0.7-0.1-1-0.2l-1.2-2.8L61.7,6L62,9c-0.3,0.2-0.6,0.4-0.8,0.6l-2.9-1.2l-1.5,2.3l2.4,1.9c-0.1,0.3-0.1,0.6-0.2,1
		L56,14.7z M109,10.6c0.6,0,1.1-0.5,1.1-1c0-0.6-0.5-1-1.1-1s-1.1,0.5-1.1,1C107.9,10.1,108.4,10.6,109,10.6 M113.7,14.7l1.7,1.3
		l-2.1,0.3v0.2c1.9,0.3,3.7,0.5,5.5,0.8c0.1-1.2,1.2-2.2,2.5-2.2c1.4,0,2.5,1.1,2.5,2.4c0,0.2,0,0.3,0,0.5c1.9,0.2,3.7,0.4,5.6,0.4
		v-2.1l-2.1-0.3l1.7-1.3l-1.3-2.1l-2,0.8l0.8-1.9l-2.2-1.2l-1.3,1.6l-0.3-2H120l-0.3,2l-1.3-1.6l-2.2,1.2l0.8,1.9l-2-0.8L113.7,14.7
		z M108.4,6.8l-0.1,0.6c-0.9,0.3-1.6,1.1-1.6,2.1c0,0.4,0.1,0.7,0.3,1l-0.4,0.5c-0.3-0.4-0.5-1-0.5-1.5
		C106.1,8.2,107.1,7.1,108.4,6.8 M108.8,7.9h0.4c0.9,0.1,1.5,0.8,1.5,1.7c0,0.4-0.1,0.7-0.4,1l-0.3,0.3c-0.3,0.2-0.7,0.4-1.1,0.4
		c-0.4,0-0.8-0.1-1.1-0.4l-0.3-0.3c-0.2-0.3-0.4-0.6-0.4-1C107.3,8.7,107.9,8,108.8,7.9 M112,9.5c0,0.6-0.2,1.1-0.5,1.5l-0.4-0.5
		c0.2-0.3,0.3-0.6,0.3-1c0-1-0.7-1.8-1.6-2.1l-0.1-0.6C110.9,7.1,111.9,8.2,112,9.5 M109,12.3c-0.6,0-1.1-0.2-1.6-0.5l0.5-0.4
		c0.3,0.2,0.7,0.2,1.1,0.2c0.4,0,0.7-0.1,1.1-0.2l0.5,0.4C110.2,12.2,109.6,12.3,109,12.3 M104.1,10.1l1.1,0.4
		c0.3,0.1,0.4,0.3,0.4,0.3c0,0.1,0.1,0.2,0.1,0.2c0,0,0,0.2,0,0.4l-0.5,1.1c0,0.1,0,0.2,0,0.3l0.5,0.5c0.1,0.1,0.2,0.1,0.3,0
		l1.1-0.5c0.3-0.1,0.5-0.1,0.5-0.1c0.1,0,0.2,0.1,0.3,0.1c0,0,0.1,0.1,0.2,0.3l0.4,1.1c0,0.1,0.1,0.2,0.2,0.2h0.7
		c0.1,0,0.2-0.1,0.2-0.2l0.4-1.1c0.1-0.3,0.3-0.4,0.3-0.4c0.1,0,0.2-0.1,0.2-0.1c0,0,0.2,0,0.4,0l1.2,0.5c0.1,0,0.2,0,0.3,0l0.5-0.5
		c0.1-0.1,0.1-0.2,0-0.3l-0.5-1c-0.1-0.3-0.1-0.5-0.1-0.5c0-0.1,0.1-0.2,0.1-0.2c0,0,0.1-0.1,0.3-0.2l1.2-0.4c0.1,0,0.2-0.1,0.2-0.2
		V9.2c0-0.1-0.1-0.2-0.2-0.2l-1.1-0.4c-0.3-0.1-0.4-0.3-0.4-0.3c0-0.1-0.1-0.2-0.1-0.2c0,0,0-0.2,0-0.4l0.5-1.1c0-0.1,0-0.2,0-0.3
		l-0.5-0.5c-0.1-0.1-0.2-0.1-0.3,0L111,6.3c-0.3,0.1-0.5,0.1-0.5,0.1c-0.1,0-0.2-0.1-0.2-0.1c0,0-0.1-0.1-0.2-0.3l-0.4-1.1
		c0-0.1-0.1-0.2-0.2-0.2h-0.7c-0.1,0-0.2,0.1-0.2,0.2l-0.4,1c-0.1,0.3-0.3,0.4-0.3,0.4c-0.1,0-0.2,0.1-0.2,0.1c0,0-0.2,0-0.4,0
		l-1.2-0.5c-0.1,0-0.2,0-0.3,0l-0.5,0.5c-0.1,0.1-0.1,0.2,0,0.3l0.5,1c0.1,0.3,0.1,0.5,0.1,0.5c0,0.1-0.1,0.2-0.1,0.2
		c0,0-0.1,0.1-0.3,0.2L104.1,9c-0.1,0-0.2,0.1-0.2,0.2v0.7C103.9,10,104,10.1,104.1,10.1 M141.8,19.9L141.8,19.9
		c-17.1,5.1-34.3-5.1-51.4,0c-17.2-5.1-31.9,5-49.1,0c-0.6-0.2-1.2-0.4-1.8-0.6v0l0-2.1c0,0.7,0.5,1.1,0.9,1.4
		c0.4,0.2,0.8,0.3,0.8,0.3v0c17.2,5.1,31.9-5.1,49.2,0c17.1-5.1,34.2,5.1,51.4,0v0c0,0,0.5-0.1,0.9-0.3c0.4-0.2,0.8-0.6,0.9-1.1
		l0,1.8C143,19.5,142.4,19.7,141.8,19.9 M136.5,35.3c-0.7,0.8-2.1,1.5-3.7,1.5c-0.9,0-1.7-0.3-2.3-0.7c-0.1,0-0.3,0.1-0.4,0.1
		c-0.4,0.1-0.8,0.2-1.1,0.3c0.2-1.4,0.5-2.8,0.7-4.2c0,0,1.1,1.5,2.5,1.6c0,0,0,0,0,0c0.2,0,0.4,0,0.6,0c1.1-0.1,1.6-0.6,1.5-1.3
		c0-0.6-0.5-1-1.9-1.5c-1.9-0.7-3.3-1.9-3.4-3.9c-0.1-1.1,0.3-2.1,1-2.8c0.7-0.7,1.8-1.1,3.2-1.2c0.9,0,1.5,0.1,2,0.4
		c0.1,0,0.1,0,0.2-0.1c0.4-0.2,0.8-0.3,1.1-0.5c-0.2,1.4-0.5,2.8-0.7,4.3c0,0-0.9-1.1-2.2-1.4c-0.1,0-0.2,0-0.3,0
		c-1.1,0.1-1.4,0.6-1.4,1.1c0,0.3,0.1,0.5,0.5,0.8c0.3,0.2,0.9,0.5,1.6,0.7c2.1,0.7,3.4,1.7,3.5,3.5
		C137.6,33.4,137.2,34.5,136.5,35.3 M125.3,26.4c0.1,0.2,0.1,0.5,0.2,0.7c-1.1-0.8-2.4-1.1-2.4-1.1c-0.5-0.1-1.1-0.1-1.6-0.2
		c0,0,0,0,0,0h0v2.4c0.4,0.1,0.8,0.1,1.2,0.1c0,0,1.1,0.1,2-0.5v3.8c-0.9-0.7-2-0.9-2-0.9c-0.4,0-0.8-0.1-1.2-0.1v2.4c0,0,0,0,0,0
		c0,0,0,0,0,0.1c0.5,0.1,1.1,0.1,1.6,0.2c0,0,1.3,0.1,2.4-0.6c-0.1,0.2-0.1,0.5-0.2,0.7c-0.2,1.6,1.2,2.8,1.2,2.8
		c-1.1-0.1-2.2-0.2-3.2-0.3c0,0,0,0,0,0c-1.7-0.2-0.7-0.1-2.4-0.3v0c-1-0.1-2.1-0.3-3.1-0.4c0.8-1.2,0.7-2.5,0.7-2.5v-7.2
		c0,0,0-1.3-0.7-2.8c1.5,0.2,3,0.4,4.5,0.6c0,0,0,0,0,0c0.6,0.1,0.9,0.1,2.1,0.2v0c0.7,0.1,1.4,0.1,2.1,0.2
		C126.5,23.7,125.1,24.7,125.3,26.4 M114.3,32.1c0,0,0,1.3,0.7,2.8c-1-0.2-2.1-0.3-3.1-0.4c0,0,0,0,0,0c-0.2,0-0.3,0-0.5-0.1
		c-1-2.1-2-4.3-3-6.4v3.4h0c0,0,0,1.3,0.7,2.7c-1.5-0.2-2.9-0.3-4.4-0.4c0.8-1.3,0.7-2.6,0.7-2.6v-7.2c0,0,0-1.3-0.7-2.7
		c1,0.1,2,0.2,3,0.3c0,0,0,0,0,0c0.6,0.1,0.9,0.8,0.9,0.8c0.9,1.9,1.8,3.8,2.7,5.6v-3.4c0,0,0-1.3-0.8-2.8c1.5,0.2,2.9,0.4,4.4,0.6
		c-0.8,1.2-0.7,2.5-0.7,2.5h0L114.3,32.1L114.3,32.1 M101.7,30.9c0,0,0,1.3,0.7,2.7c-1.5,0-3,0-4.5,0.1c0.8-1.4,0.7-2.7,0.7-2.7
		v-7.2c0,0,0,0,0,0c0,0,0-1.3-0.7-2.6c1.5-0.1,3-0.1,4.5-0.1c-0.8,1.3-0.7,2.6-0.7,2.6h0L101.7,30.9L101.7,30.9z M94.7,31.3
		c0,0,0,1.3,0.7,2.5c-1.5,0.2-3,0.5-4.5,0.9c0.8-1.5,0.7-2.9,0.7-2.9v-2.6c-0.6,0.3-1.3,0.6-1.3,0.6c0,0,0,0,0,0
		c-0.1,0-0.8,0.1-1.4,0.3v1.7h0c0,0,0,1.3,0.7,2.9c-1.5-0.4-3-0.7-4.5-0.9c0.8-1.2,0.7-2.5,0.7-2.5v-7.2c0,0,0-1.3-0.7-2.8
		c1.5,0.2,3,0.5,4.5,0.9C89,23.4,89,24.8,89,24.8s0,0,0,0v2.5c0.4-0.1,1.4-0.3,2.7-1v-1.5c0,0,0-1.3-0.7-2.5c1.5-0.4,3-0.7,4.5-0.9
		c-0.8,1.4-0.7,2.8-0.7,2.8c0,0,0,0,0,0L94.7,31.3L94.7,31.3z M77.1,30c0.3,0.9,0.6,1.4,1.1,1.4c0.4,0,0.8-0.6,1.1-1.5
		c0,0,0.1-0.1,0.2-1.4c0,0,1.7,1.4,3.7-0.8c-0.1,3.5-2.3,6.1-5,6.2c-2.8,0.1-5-2.6-5-6.2c0-3.6,2.2-6.8,5-6.9c1.2,0,2.3,0.6,3.2,1.5
		c0.6,0.3,1.2,0.7,1.8,1.1c-0.2,0.3-0.6,0.7-0.9,1c-2,1.6-2.9,1-2.9,0.5c0-0.1,0-0.2-0.1-0.3c-0.3-0.9-0.6-1.4-1.1-1.4
		c-0.4,0-0.8,0.6-1.1,1.5C76.9,25.3,76.9,29.2,77.1,30 M70.5,34.2C70.5,34.2,70.5,34.2,70.5,34.2c-0.5,0.1-1,0.1-1.5,0.2
		c0,0,0,0,0,0c-0.7,0.1-1.4,0.2-2.1,0.3c0.4-1.1,0.4-2.3,0.4-2.6c-0.3,0-0.5,0-0.7,0c-0.1,0-0.3,0-0.4,0.1c-0.3,0.1-0.5,0.1-0.7,0.3
		c0,0.4,0,1.5,0.4,2.4c-0.3,0-0.7,0.1-1,0.1c0,0,0,0,0,0c-0.7,0.1-1.7,0.3-2.4,0.4c-0.4,0.1-0.8,0.1-1.3,0.2
		c0.9-1.4,1.2-2.9,1.2-2.9c0.2-1.2,0.4-2.3,0.6-3.5c0-0.1,0-0.3,0.1-0.4c0.2-1.1,0.3-2.1,0.5-3.2v-0.8c0-0.8-1.3,1.4-1.5,1.4
		c-0.2,0-1.1-3.2-1.1-3.2c1.3-0.2,2.9-0.4,4.2-0.6c0.2,0,0.4-0.1,0.6-0.1c0,0,0,0,0,0c0.5-0.1,1-0.2,1.5-0.2c0,0,0,0,0,0
		c0.8-0.1,1.7-0.2,2.5-0.3c-0.5,1.3-0.3,2.8-0.3,2.8c0.2,1.1,0.4,2.2,0.6,3.3c0,0.1,0,0.2,0.1,0.4c0.2,1.1,0.4,2.2,0.6,3.3
		c0,0,0.3,1.3,1.2,2.5C71.3,34,70.9,34.1,70.5,34.2 M58.8,35.8c-1.4,0.2-3.2,0.4-4.6,0.5c0.7-1.3,0.8-4.2,0.8-4.2c0-1.1,0-2.3,0-3.4
		c-0.8,1.4-1.6,2.7-2.4,4c-0.8-1.2-1.6-2.5-2.5-3.8c0,0,0,0.8,0,0.8v3.9c0,0,0.1,1.5,0.8,2.8c-1.5,0-3.2,0-4.7-0.1
		c0.7-1.2,0.8-2.7,0.8-2.7c0-2.4,0-4.8,0-7.1c0,0-0.1-1.4-0.8-2.7c0.8,0,1.6,0.1,2.4,0.1c0.9,0,1.1,0,1.9,0c0.7,1.1,1.4,2.2,2.1,3.2
		c0.7-1.1,1.3-2.3,2-3.4c1.2-0.1,1.7-0.2,2.8-0.3c0.5,0,1-0.1,1.5-0.2C58.1,24.6,58,26,58,26v7.1C58,33.2,58.1,34.6,58.8,35.8
		 M146.2,14.1C146.2,14.1,146.2,14.1,146.2,14.1C146.2,14.1,146.2,14.1,146.2,14.1c0.3,0,0.6,0,0.9,0c0,0,0,0,0,0
		c0.5,0,3.2-0.2,3.6-0.2c0.4,0,0.6,0,1,0.1c1.8,0.7,3.1,3.1,3.1,5.9c0,3.3-1.8,5.8-4.1,5.8c-0.2,0-1.7-0.1-2.4-0.1c-0.7,0-1.3,0-2,0
		c0,0,0,0,0,0c0,0,0,0,0,0c0-0.1,0.1-0.2,0.1-0.3c0.4-0.9,0.5-1.9,0.5-2.1c0,0,0-0.1,0-0.1v-6.6v0C146.8,16.3,146.7,15.1,146.2,14.1
		 M156.5,16.6c0,0,0-1.2-0.6-2.5c1.3,0.1,2.6,0.1,3.9,0.2c0,0,0,0,0,0c0.5,0,0.8,0,1.8,0.1v0c0.6,0,1.2,0.1,1.8,0.1
		c0,0-1.2,0.9-1,2.4c0,0.2,0.1,0.5,0.1,0.7c-1-0.7-2.1-0.9-2.1-0.9c-0.5,0-0.9-0.1-1.4-0.1c0,0,0,0,0,0c0,0,0,0,0,0v2.2
		c0.4,0,0.7,0,1.1,0.1c0,0,0.9,0,1.7-0.5V22c-0.8-0.6-1.7-0.7-1.7-0.7c-0.4,0-0.7,0-1.1-0.1v2.2c0,0,0,0,0,0s0,0,0,0.1
		c0.5,0,0.9,0.1,1.4,0.1c0,0,1.1,0,2.1-0.7c0,0.2-0.1,0.4-0.1,0.7c-0.2,1.5,1,2.6,1,2.6c-0.9-0.1-1.9-0.1-2.8-0.2c0,0,0,0,0,0
		c-1.5-0.1-0.6,0-2.1-0.1v0c-0.9,0-1.8-0.1-2.7-0.1c0.6-1.2,0.6-2.4,0.6-2.4V16.6z M168.9,15.1c1.3,0.1,2.6,0.2,3.9,0.4
		c-0.6,1.2-0.6,2.4-0.6,2.4h0v6.6h0c0,0,0,0,0,0.1c0.5,0,0.9,0.1,1.4,0.1c0,0,1.1,0,2.1-0.6c0,0.2-0.1,0.4-0.1,0.7
		c-0.2,1.5,1,2.6,1,2.6c-0.9-0.1-1.9-0.1-2.8-0.2c0,0,0,0,0,0c-1.5-0.1-0.6,0-2.1-0.2v0c-0.9-0.1-1.8-0.2-2.7-0.3
		c0.6-1.2,0.6-2.4,0.6-2.4v-6.6C169.6,17.6,169.6,16.4,168.9,15.1 M174.9,15.7c0.5,0,1,0.1,1.5,0.1c-0.2,0.8-0.5,1.7-0.7,2.5
		c-0.3,0-0.5,0-0.8-0.1V15.7z M177.8,17.4c0.6-0.8,1.2-1.6,1.8-2.4c0.1-0.1,0.2-0.1,0.3,0c0.6,0.9,1.2,1.8,1.8,2.7
		c0.1,0.1,0.1,0.4,0,0.5l-0.1,0.1c-0.1,0.1-0.2,0.1-0.3,0c-0.4-0.4-0.9-0.7-1.3-1.1c-0.1-0.1-0.3-0.1-0.4,0
		c-0.4,0.3-0.9,0.6-1.3,0.9c-0.1,0.1-0.2,0-0.3-0.1c0,0-0.1-0.1-0.1-0.1C177.8,17.9,177.8,17.6,177.8,17.4 M181.8,19.4
		c-0.6,1.1-0.6,2.4-0.6,2.4c0,2.2,0,1.3,0,3.5c0,0,0,1,0.4,2c0.1,0.1,0.1,0.3,0.2,0.4c0,0,0,0,0,0c0,0,0,0,0,0
		c-1.3-0.1-2.6-0.2-3.9-0.4c0,0,0,0,0,0c0,0,0,0,0,0c0-0.1,0.1-0.2,0.1-0.2c0.4-0.9,0.5-1.8,0.5-2.1c0,0,0-0.1,0-0.1h0v-3.6h0v0
		c0-0.2-0.1-1.4-0.6-2.5c0,0,0,0,0,0c0,0,0,0,0,0C179.2,19.1,180.5,19.2,181.8,19.4C181.8,19.4,181.8,19.4,181.8,19.4
		C181.8,19.4,181.8,19.4,181.8,19.4 M182.9,16.4c1.3,0.1,2.6,0.2,3.9,0.3c-0.6,1.2-0.6,2.4-0.6,2.4h0v6.6h0c0,0,0,0,0,0.1
		c0.5,0,0.9,0.1,1.4,0.1c0,0,1.1,0,2.1-0.7c0,0.2-0.1,0.5-0.1,0.7c-0.2,1.5,1,2.5,1,2.5c-0.9,0-1.9-0.1-2.8-0.1c0,0,0,0,0,0
		c-1.5-0.1-0.6,0-2.1-0.1c0,0,0,0,0,0c-0.9-0.1-1.8-0.1-2.7-0.2c0.6-1.2,0.6-2.4,0.6-2.4v-6.6C183.6,18.9,183.6,17.6,182.9,16.4
		 M191.2,28.2c0.5-1,0.6-2.1,0.6-2.4v-6.5c0,0,0-1.2-0.6-2.5c0,0,0.1,0,0.1,0c0-0.1-0.1-0.1-0.1-0.2c0.2,0,0.4,0,0.7,0v0
		c1.6,0.1,3.5,0.1,5.1,0.1v0c0.6,0,1.2,0,1.8-0.1c0,0-0.1,0.1-0.2,0.2c0.1,0,0.1,0,0.2,0c0,0-0.9,0.8-1,2c0,0.1,0,0.2,0,0.3
		c0,0.2,0.1,0.5,0.1,0.7c0,0,0,0-0.1,0c0,0.1,0,0.2,0.1,0.3c-1-0.7-2.1-0.7-2.1-0.7c-0.5,0-0.9,0-1.4,0c0,0,0,0,0,0h0v1.9
		c0.5,0,0.9,0,1.4,0c0,0,0.9-0.1,1.7-0.6v1.1c0,0,0,0,0,0c0,0.4,0,0.9,0,1.3c0,0,0,0,0,0v1.1c-0.1-0.1-0.2-0.1-0.3-0.2v0.4
		c-0.8-0.5-1.7-0.6-1.7-0.6c-0.4,0-0.7,0-1.1,0v2c0.5,0,0.9,0,1.4,0c0,0,1.1-0.1,2.1-0.8c0,0.1,0,0.2-0.1,0.3c0,0,0,0,0,0
		c0,0.2-0.1,0.5-0.1,0.7c0,0,0,0.1,0,0.1c0,1.3,1,2.1,1,2.1c-0.1,0-0.2,0-0.2,0c0.1,0.1,0.2,0.2,0.2,0.2c-0.9,0-1.9,0.1-2.8,0.1
		c0,0,0,0,0,0c-1.5,0-0.6,0-2.1,0c0,0,0,0,0,0c-0.9,0-1.8,0-2.7-0.1c0-0.1,0.1-0.1,0.1-0.2C191.3,28.2,191.2,28.2,191.2,28.2
		 M36.7,24.4c-0.6,0.7-1.8,1.2-3.1,1.4c-0.8,0.1-1.4-0.1-2-0.4c-0.1,0.1-0.2,0.1-0.3,0.2c-0.3,0.2-0.6,0.3-1,0.5
		c0.2-1.3,0.4-2.6,0.6-3.9c0,0,0.9,1.2,2.1,1.2c0,0,0,0,0,0c0.2,0,0.3,0,0.5,0c1-0.1,1.4-0.6,1.3-1.2c0-0.6-0.4-0.9-1.6-1.3
		c-1.7-0.5-2.8-1.4-2.9-3.1c-0.1-1,0.2-2,0.9-2.7s1.5-1.2,2.7-1.4c0.7-0.1,1.3,0.1,1.7,0.3c0,0,0.1,0,0.1-0.1c0.3-0.1,0.6-0.3,1-0.4
		c-0.2,1.3-0.4,2.6-0.6,3.9c0,0-0.8-1.1-1.9-1.2c-0.1,0-0.2,0-0.2,0c-0.9,0.1-1.2,0.6-1.2,1.1c0,0.3,0.1,0.5,0.4,0.7
		c0.3,0.2,0.7,0.4,1.4,0.6c1.8,0.6,2.9,1.7,3,3.4C37.6,22.7,37.4,23.6,36.7,24.4 M27.9,17.2c0,0.2,0.1,0.4,0.1,0.6
		c-0.9-0.5-2.1-0.4-2.1-0.4c-0.4,0.1-0.9,0.2-1.3,0.2c0,0,0,0,0,0c0,0,0,0,0,0v2.1c0.4-0.1,0.7-0.1,1.1-0.2c0,0,0.9-0.2,1.7-0.9v3.5
		c-0.8-0.4-1.7-0.3-1.7-0.3c-0.4,0.1-0.7,0.1-1.1,0.2v2.2c0,0,0,0,0,0c0,0,0,0,0,0.1c0.4-0.1,0.9-0.2,1.3-0.2c0,0,1.1-0.3,2.1-1.1
		c0,0.2-0.1,0.5-0.1,0.7c-0.2,1.5,1,2.3,1,2.3c-0.9,0.2-1.8,0.3-2.8,0.5c0,0,0,0,0,0c-1.5,0.3-0.6,0.1-2.1,0.3v0
		c-0.9,0.1-1.8,0.3-2.6,0.4c0.6-1.3,0.6-2.5,0.6-2.5h0v-6.5c0,0,0,0,0,0s0-1.2-0.6-2.3c1.3-0.2,2.6-0.4,3.9-0.6c0,0,0,0,0,0
		c0.5-0.1,0.8-0.1,1.8-0.3v0c0.6-0.1,1.2-0.2,1.8-0.3C28.9,14.6,27.7,15.8,27.9,17.2 M17.9,27.7C17.9,27.7,17.9,27.7,17.9,27.7
		c-1.5,0.2-0.6,0.1-2.1,0.2c0,0,0,0,0,0c-0.9,0.1-1.8,0.1-2.6,0.2c0.6-1.2,0.6-2.5,0.6-2.4v-6.5v0c0,0,0-1.2-0.6-2.4
		c1.3,0,2.6-0.1,3.9-0.3c-0.6,1.3-0.6,2.5-0.6,2.5h0v6.5h0c0,0,0,0,0,0.1c0.4,0,0.9-0.1,1.3-0.1c0,0,1.1-0.2,2.1-1
		c0,0.2-0.1,0.5-0.1,0.7c-0.2,1.5,1,2.3,1,2.3C19.7,27.5,18.8,27.6,17.9,27.7 M142.7,29.7l0.1-1c22.7-2.3,45.5,5.2,68.2,1.3
		c-2.7-2.6-5.3-5.3-8-8.2c2.6-2.9,5.3-6,7.9-9.2c-25,4.3-49.9-5.3-74.9-0.3l-1.3,0.4c0-0.1-0.1-0.2-0.1-0.3c0-0.1,0-0.2,0-0.2
		c0-0.1,0.1-0.2,0.3-0.4c0.2-0.1,0.6-0.3,1.2-0.4c25.3-5,50.5,4.9,75.8,0.2c0.3-0.4,0.6-0.7,0.9-1.1c-25.6,5.1-51.2-5.1-76.7,0v0
		c-0.7,0.1-1.3,0.4-1.6,0.6c-0.3,0.2-0.6,0.6-0.6,0.9c0,0.1-0.1,0.3-0.1,0.4c0,0.8,0.5,1.4,1.2,1.8c0.7,0.4,1.6,0.7,2.5,1
		c1.8,0.5,3.9,0.9,4.8,1.3c0.3,0.1,0.4,0.2,0.4,0.3c0.1,0.2,0.1,0.3,0.1,0.4c0,0.2-0.1,0.3-0.3,0.5c-0.1,0.1-0.2,0.1-0.3,0.2
		c-0.1-0.1-0.3-0.1-0.4-0.2c-0.6-0.2-1.2-0.5-1.9-0.7c-1.5-0.4-3.3-0.7-4.4-1.3c-0.5-0.3-1.4-0.7-1.9-1.1c0,0,0,0.1,0,0.1
		c0,0.1,0,0.2,0,0.4v0.1c0.4,0.3,1.3,1,2.8,1.4c1.7,0.4,3.8,1,5.1,1.5c-0.3,0.1-0.6,0.2-0.9,0.2c-1.2-0.4-3-0.9-4.4-1.2
		c-1.1-0.2-2.1-0.8-2.7-1.2v0.2c0.4,0.3,1.3,1,2.8,1.4c1.1,0.3,2.3,0.6,3.4,0.9c-0.4,0.1-0.7,0.2-1.1,0.2c-0.8-0.2-1.7-0.5-2.4-0.6
		c-1.1-0.2-2.1-0.8-2.7-1.2v0.2c0.4,0.3,1.3,1,2.8,1.4c0.4,0.1,0.9,0.2,1.4,0.4c-0.5,0.1-1,0.2-1.5,0.2c-1.1-0.2-2.1-0.8-2.7-1.2
		v0.2c0.3,0.3,0.9,0.7,1.9,1.1c-0.4,0-0.8,0.1-1.2,0.1c-0.2-0.1-0.5-0.3-0.6-0.4v0.4c-14.4,0.8-28.7-5.6-43.1-1.4
		c-14.5-4.2-27.1,2.2-41,1.4V19c-0.2,0.1-0.4,0.2-0.6,0.4c-0.4,0-0.8-0.1-1.2-0.1c0.9-0.4,1.5-0.8,1.8-1V18
		c-0.6,0.4-1.6,0.9-2.7,1.2c-0.5-0.1-1-0.1-1.4-0.2c0.5-0.1,0.9-0.2,1.3-0.4c1.5-0.4,2.4-1,2.8-1.4V17c-0.6,0.4-1.6,0.9-2.7,1.2
		c-0.7,0.2-1.6,0.4-2.4,0.6c-0.4-0.1-0.7-0.2-1.1-0.2c1.1-0.3,2.4-0.6,3.4-0.9c1.5-0.4,2.4-1,2.8-1.4V16c-0.6,0.4-1.6,0.9-2.7,1.2
		c-1.4,0.3-3.1,0.8-4.3,1.2c-0.3-0.1-0.6-0.2-0.9-0.2c1.4-0.6,3.4-1.1,5.1-1.5c1.5-0.4,2.4-1,2.8-1.4l0-0.1c0-0.2,0-0.3,0-0.4
		c0,0,0-0.1,0-0.1c-0.5,0.4-1.4,0.8-1.9,1.1c-1.1,0.6-2.8,0.9-4.4,1.3c-0.8,0.2-1.3,0.5-1.9,0.7c-0.1,0-0.2,0.1-0.3,0.1
		c-0.1,0-0.1-0.1-0.2-0.1c-0.2-0.1-0.3-0.3-0.3-0.5c0-0.1,0-0.2,0.1-0.4c0,0,0.1-0.2,0.4-0.3c0.9-0.5,3-0.8,4.8-1.3
		c0.9-0.3,1.8-0.5,2.5-1c0.7-0.4,1.2-1,1.2-1.8c0-0.1,0-0.3-0.1-0.4c-0.1-0.3-0.3-0.6-0.6-0.9c-0.3-0.2-0.8-0.4-1.5-0.6
		c-15.4-5.1-30.8,5.1-46.3,0c0.3,0.4,0.6,0.8,0.9,1.2c15,4.4,30.1-5.1,45.1-0.4h0l0.3,0.1c0.6,0.2,0.7,0.2,0.9,0.4
		c0.2,0.2,0.3,0.3,0.3,0.4c0,0.1,0,0.2,0,0.2c0,0.1,0,0.2-0.1,0.3l-1.1-0.4c-14.8-4.9-29.6,4.3-44.4,0.5c2.6,3.4,5.3,6.4,7.9,9.2
		c-2.7,3-5.3,5.8-8,8.1c12.5,3.2,25.1-2.8,37.6-1.9l0.1,1c-12.8-1-25.7,5.4-38.5,1.6c-0.3,0.2-0.5,0.4-0.8,0.7
		c13.1,4.3,26.3-2.4,39.4-1.4l0.6,6.8c0.1,0,0.1,0,0.2,0.1v0c17.2,5.1,31.9-5.1,49.2,0c17.1-5.1,34.2,5.1,51.3,0v0
		c0.1,0,0.2-0.1,0.3-0.1l0.6-6.5c23.4-2.4,46.7,5.6,70.1,1c-0.3-0.3-0.5-0.5-0.8-0.8C188.8,35.2,165.7,27.3,142.7,29.7 M91.8,9.2
		c0-0.6-0.5-1.1-1.1-1.1c-0.6,0-1.1,0.5-1.1,1.1c0,0.6,0.5,1.1,1.1,1.1C91.3,10.2,91.8,9.8,91.8,9.2 M120.2,17.4
		C120.2,17.5,120.2,17.5,120.2,17.4c0.7,0.1,1.4,0.2,2.1,0.3c0-0.1,0-0.2,0-0.3c0-0.6-0.5-1-1.1-1C120.6,16.4,120.2,16.9,120.2,17.4
		 M96.1,15.7C95.9,13,93.6,11,90.7,11c-2.9,0-5.2,2.1-5.5,4.8c1.7,0.2,3.4,0.6,5.1,1.1C92.3,16.3,94.2,15.9,96.1,15.7 M87.6,11
		c0.5-0.3,0.7-0.9,0.4-1.4c-0.3-0.5-1-0.7-1.5-0.4c-0.5,0.3-0.7,0.9-0.4,1.4C86.4,11.2,87.1,11.3,87.6,11 M81.5,15.5
		c0.4-4.5,4.4-8.1,9.2-8.1c4.8,0,8.8,3.5,9.2,8c0.4,0,0.9,0,1.3,0c1.8,0,3.6,0.1,5.4,0.3v-0.6c0-0.3-0.2-0.6-0.5-0.7l-3.4-1.2
		c-0.9-0.3-1.2-0.8-1.2-0.9c-0.1-0.3-0.2-0.5-0.3-0.7c0-0.1-0.1-0.5,0.1-1.1l1.7-3.4c0.1-0.3,0.1-0.6-0.2-0.8l-1.6-1.5
		c-0.2-0.2-0.6-0.3-0.9-0.1L97,6c-0.9,0.4-1.5,0.2-1.5,0.2c-0.3-0.1-0.5-0.2-0.8-0.3c-0.1-0.1-0.4-0.3-0.7-0.9l-1.4-3.6
		C92.5,1.2,92.1,1,91.8,1h-2.3c-0.3,0-0.6,0.2-0.7,0.5l-1.3,3.3c-0.3,0.8-0.8,1.1-0.9,1.2c-0.3,0.1-0.5,0.2-0.8,0.3
		c-0.1,0-0.6,0.1-1.2-0.1l-3.6-1.6c-0.3-0.1-0.7-0.1-0.9,0.1l-1.6,1.5c-0.2,0.2-0.3,0.6-0.2,0.8l1.5,3.2c0.4,0.9,0.2,1.4,0.2,1.4
		c-0.1,0.2-0.2,0.5-0.3,0.7c-0.1,0.1-0.3,0.4-0.9,0.7l-3.7,1.3c-0.3,0.1-0.5,0.4-0.5,0.7v0.6c1.6-0.1,3.3-0.2,5-0.2
		C80.3,15.4,80.9,15.4,81.5,15.5 M85.3,13.2c0.3-0.5,0.1-1.2-0.4-1.4c-0.5-0.3-1.2-0.1-1.5,0.4c-0.3,0.5-0.1,1.2,0.4,1.4
		S85,13.7,85.3,13.2 M82.5,15.5c0.6,0,1.2,0.1,1.8,0.2c-0.2-0.3-0.5-0.5-1-0.5C83,15.1,82.7,15.3,82.5,15.5"/>
	<path class="st0" d="M159.9,37l0.5,1.2h-1L159.9,37z M159.1,39.7c-0.1,0-0.2-0.1-0.2-0.2c0,0,0.1-0.2,0.2-0.4h1.7
		c0,0.1,0.1,0.3,0.1,0.4c0,0.1-0.1,0.2-0.3,0.2V40h2.2v-0.2c-0.2-0.1-0.4-0.3-0.6-0.8l-1.8-3.8h-0.8l-1.5,3.3
		c-0.6,1.2-0.6,1.3-0.9,1.3V40h1.8V39.7z"/>
	<path class="st0" d="M168.6,39.7c-0.2-0.1-0.3-0.2-0.3-0.4V37l3.1,3h0.7v-4.1c0-0.2,0.1-0.3,0.3-0.4v-0.3h-1.8v0.2
		c0.3,0.1,0.3,0.3,0.3,0.5v1.5l-2.3-2.2h-1.8v0.3c0.2,0.1,0.3,0.2,0.3,0.4v3.4c0,0.2-0.1,0.3-0.3,0.4V40h1.8V39.7z"/>
	<path class="st0" d="M152.5,40h0.7v-4.1c0-0.2,0.1-0.3,0.3-0.4v-0.3h-1.8v0.2c0.3,0.1,0.3,0.3,0.3,0.5v1.5l-2.3-2.2H148v0.3
		c0.2,0.1,0.3,0.2,0.3,0.4v3.4c0,0.2-0.1,0.3-0.3,0.4V40h1.8v-0.2c-0.2-0.1-0.3-0.2-0.3-0.4V37L152.5,40z"/>
	<path class="st0" d="M177.3,36.3h1.1v3c0,0.2-0.1,0.3-0.3,0.4V40h2.1v-0.2c-0.2-0.1-0.3-0.2-0.3-0.4v-3h1.1c0.3,0,0.5,0.1,0.6,0.3
		h0.3l-0.5-1.3h-4.4l-0.5,1.3h0.3C176.8,36.4,177,36.3,177.3,36.3"/>
	<path class="st0" d="M186.2,36.1v3.3c0,0.2-0.1,0.3-0.3,0.4V40h3.8l0.5-1.3h-0.3c-0.2,0.2-0.4,0.3-0.7,0.3h-1.5v-1h1.5
		c0.2,0,0.4,0.1,0.4,0.3h0.3v-1.5h-0.2c-0.1,0.2-0.2,0.3-0.4,0.3h-1.5v-0.8h1.6c0.2,0,0.4,0.1,0.5,0.2h0.3l-0.5-1.2h-3.7v0.2
		C186.1,35.6,186.2,35.8,186.2,36.1"/>
	<path class="st0" d="M196.1,39c-0.6,0-1.2-0.5-1.5-0.7h-0.3l0.5,1.7h0.2l0.1-0.2c0.4,0.1,0.7,0.3,1.3,0.3c1.1,0,1.7-0.6,1.7-1.4
		c0-1.6-2.2-1.5-2.2-2.2c0-0.2,0.1-0.3,0.4-0.3c0.4,0,0.9,0.2,1.3,0.7h0.3l-0.2-1.7h-0.2l-0.2,0.2c-0.4-0.2-0.8-0.3-1.2-0.3
		c-0.7,0-1.6,0.4-1.6,1.4c0,0.6,0.3,0.9,0.8,1.2c0.8,0.5,1.3,0.5,1.3,0.9C196.7,38.9,196.6,39,196.1,39"/>
</g>
</svg>
